# xmcd CD database file
#
# Track frame offsets:
#	150
#	18158
#	37244
#	58897
#	78149
#	99374
#	119629
#	133865
#	153904
#	172773
#
# Disc length: 2625 seconds
#
# Revision: 3
# Processed by: cddbd v1.5PL3 Copyright (c) Steve Scherf et al.
# Submitted via: CDex 1.50Beta7
#
DISCID=7a0a3f0a
DTITLE=เสกสรรค์ ปานประทีป - Oh โอ้
DYEAR=2002
DGENRE=Blues
TTITLE0=ใจให้ไป
TTITLE1=พรุ่งนี้จะดี
TTITLE2=กลับมา(อย่างเคยรักกัน)
TTITLE3=ต้องมีสักวัน...สักคน
TTITLE4=รักแท้อยู่ไหน
TTITLE5=เธอคือเหตุผล
TTITLE6=คนสำคัญ
TTITLE7=อยากได้ยินแค่สัญญา
TTITLE8=โชคดี
TTITLE9=แพ้กับชนะ
EXTD=YEAR: 2002
EXTT0=
EXTT1=
EXTT2=
EXTT3=
EXTT4=
EXTT5=
EXTT6=
EXTT7=
EXTT8=
EXTT9=
PLAYORDER=
